<svg xmlns="http://www.w3.org/2000/svg" viewBox="0 0 512 512"><path d="M512 396.5a32.6 32.6 0 0 1 -40.4-15.4l-73.6-101.8-10.7-14.2-85.4 116.1a31.3 31.3 0 0 1 -38.4 15.1l110-147.6-102.4-133.4a34 34 0 0 1 40.5 14.2l76.3 103 76.7-102.6a30.6 30.6 0 0 1 38.1-14.3l-39.7 52.7-53.8 70a14.2 14.2 0 0 0 0 21.2l102.5 136.8zM0 247l9-44.3c24.6-87.5 125-123.9 194-69.8c40.4 31.8 50.5 76.7 48.5 127.4H23.8C20.1 350.9 85.4 405.5 169 377.6a87 87 0 0 0 55.1-61.4c4.4-14.2 11.7-16.6 25-12.5A115.6 115.6 0 0 1 193.9 388.1 133.8 133.8 0 0 1 38 368.2 140.3 140.3 0 0 1 3 285.9c0-5-1.7-9.7-2.9-14.2A1884.4 1884.4 0 0 1 0 247zm24-6.1h206c-1.3-65.6-42.7-112.2-97.9-112.6c-61.5-.9-105.5 44.7-108.2 112.3z"/></svg>