<svg xmlns="http://www.w3.org/2000/svg" viewBox="0 0 512 512"><path d="M364.8 233c-1.1-12.4-3.3-24.7-6.5-36.8c-10-37.9-26.7-74.2-50.1-105.6c-6.4-8.6-13.3-16.8-20.7-24.5c-7.6-8-16.1-15.3-21.4-25.2c-3.4-6.3-6.6-12.7-9.8-19c0 2-.2 4-.2 5.9c0-2 .1-4 .2-6c-.6-1.5-1.2-3.1-2.1-5.2c-.4 1.2-.6 1.6-.6 2.1c-.3 10.3-6.1 17.3-13.4 23.9c-8.2 7.4-15.8 15.3-23.7 23.1c.3 .4 .6 .7 .9 1.1c-.3-.4-.6-.7-.9-1.1c-23.4 30.8-44 63.7-56.2 100.6c-3.5 10.8-6.3 21.7-8.3 32.9c-4.1 23.7-6.1 46.7-4.7 70.7c.7 13.3 3.1 26.3 6.5 39.2c12.6 46.7 38.1 85.4 72.9 118.3c6.5 6.1 13.5 11.7 20.2 17.5c0-.1 0-.1 0-.2c0 .1 0 .1 0 .2c1 3.4 2 6.8 3 10.3c.9 5.3 1.9 10.6 2.8 15.9c.4 5.5 .9 11.1 1.3 16.6c0 3.4-.2 6.8 0 10.1c0 .9 1.2 1.7 1.8 2.5c0 0 0-.1 .1-.1c0 0 0 .1-.1 .1c1.9 .7 3.8 1.3 5.6 2c1.7 .7 3.4 1.3 5.9 2.3c-.4-5.5-.7-10.2-1-14.8c0-4.8 0-9.7 0-14.6c-.1 .1-.2 .2-.3 .3c.1-.1 .2-.2 .3-.3c.7-7.4 1.4-14.8 2-22.2c.5-1.6 1-3.2 1.5-4.8c1.4-2.5 2.8-5 4.2-7.5c5.2-4.2 10.8-8 15.5-12.6c8.6-8.4 17.1-17 24.8-26.2c10-12 18.5-25 25.4-39.1c19.6-39.9 28.6-84.3 25-128.6c0-.4-.1-.8-.1-1.2z"/></svg>