<svg xmlns="http://www.w3.org/2000/svg" viewBox="0 0 512 512"><path d="M359.2 342.9c18.3-1.8 32.5-17.1 32.5-35.8c0-.7 0-1.5-.1-2.2v.1c-1-19.7-17.1-35.3-36.9-35.6h-1.3c-19.8 .7-35.6 17-35.6 36.9c0 .5 0 .9 0 1.4v-.1c.5 9.7 4.5 18.4 10.7 24.9l0 0c-24.3 45.3-61.5 81.1-106.6 103l-1.4 .6c-24.4 13.5-53.5 21.5-84.5 21.5c-7.8 0-15.6-.5-23.1-1.5l.9 .1c-27.9-2.7-51.9-17.3-67.1-38.6l-.2-.3c-11-15.5-17.6-34.7-17.6-55.5c0-17.1 4.5-33.2 12.3-47.2l-.2 .5c11.2-21.2 26.5-38.9 44.9-52.5l.4-.3c-3.5-9.3-6.6-20.5-8.8-31.9l-.2-1.4c-95.9 68.6-86.2 162.4-57.1 206.7c25.5 32.5 64.7 53.2 108.8 53.2c2 0 4 0 6-.1h-.3c.7 0 1.6 0 2.4 0c13.3 0 26.1-1.5 38.5-4.4l-1.1 .2c82.1-15 149.3-67.9 183.8-139.6l.7-1.5zm115.5-80.8c-49.2-56.1-121-91.3-201.1-91.3c-2.4 0-4.9 0-7.3 .1h.4-11c-5.8-11.6-17.6-19.5-31.3-19.5c-.4 0-.8 0-1.2 0h.1-.8c-19.8 .3-35.7 16.4-35.7 36.2c0 .6 0 1.2 0 1.7v-.1c.9 19.7 17 35.4 36.9 35.6h1.6c14.6-.6 27-9.7 32.3-22.4l.1-.2h12c52.3 .1 100.8 16.1 141 43.6l-.9-.6c31.4 20.1 55.6 48.9 69.5 83l.4 1.2c5.3 11.1 8.4 24.1 8.4 37.9c0 14.5-3.5 28.3-9.6 40.4l.2-.5c-15.9 32.5-48.7 54.4-86.7 54.4c-1.4 0-2.8 0-4.1-.1h.2c-23.3-.5-45.3-5.6-65.2-14.5l1.1 .4c-7.8 6.5-20.7 17.1-30.1 23.6c24.9 12.2 54 19.6 84.8 20.4h.2c1.2 0 2.6 .1 4 .1c52.3 0 98-27.8 123.4-69.3l.4-.6c7-16.6 11.1-35.9 11.1-56.2c0-40.6-16.3-77.3-42.7-104l0 0-.3 .7zM140.2 354.6c.9 19.7 17.1 35.5 36.9 35.6h1.3c19.8-.7 35.7-16.9 35.7-36.9c0-20.3-16.4-36.7-36.6-36.9h-1.4c-.2 0-.5 0-.7 0c-1.5 0-2.9 .2-4.3 .7l.1 0c-21.9-35.7-34.9-78.8-34.9-125.1c0-7.5 .3-14.8 1-22.1l-.1 .9c1.9-39 16.2-74.4 39.1-102.5l-.2 .3c20.3-21.9 48.9-35.9 80.8-36.9h.2c69.9-1.3 99 85.8 101.3 120.4l32.4 9.7C383.2 55.7 317.2 0 254.1 0C190 3.3 136.7 46.5 118.5 105.1l-.3 1.1c-9 25.8-14.2 55.6-14.2 86.6c0 53 15.2 102.5 41.4 144.3l-.7-1.1c-2.9 4.4-4.7 9.9-4.7 15.7c0 1.1 .1 2.2 .2 3.2l0-.1z"/></svg>